PathFileType	3	(X/Y/Z)	E:\ViconData\BIOM9541 2025\Week 7\Wed1100\Stat Cal.trc
DataRate	CameraRate	NumFrames	NumMarkers	Units	OrigDataRate	OrigDataStartFrame	OrigNumFrames
200.0	200.0	16	19	mm	200.0	85	106	
Frame#	Time	C7			CLAV			RBAK			LASI			RASI			LPSI			RPSI			LTHI			LKNE			LTIB			LANK			LHEE			LTOE			RTHI			RKNE			RTIB			RANK			RHEE			RTOE			
		X1	Y1	Z1	X2	Y2	Z2	X3	Y3	Z3	X4	Y4	Z4	X5	Y5	Z5	X6	Y6	Z6	X7	Y7	Z7	X8	Y8	Z8	X9	Y9	Z9	X10	Y10	Z10	X11	Y11	Z11	X12	Y12	Z12	X13	Y13	Z13	X14	Y14	Z14	X15	Y15	Z15	X16	Y16	Z16	X17	Y17	Z17	X18	Y18	Z18	X19	Y19	Z19	
85	0.42	230.46603	1319.3617	-1004.3626	235.80376	1262.7363	-844.33252	74.927467	1241.0653	-999.6474	348.87589	883.90747	-808.85004	96.558517	894.90027	-802.81409	262.6236	952.52045	-986.55194	189.08173	952.44348	-983.55701	394.4093	550.87915	-879.15961	379.267	417.11237	-908.54828	395.49896	205.05841	-935.09753	377.05466	62.759102	-960.23615	324.29132	48.457329	-990.65369	377.21771	37.277756	-809.96594	37.059704	726.66846	-864.49152	50.491005	417.5809	-916.77716	30.13773	320.08151	-930.57983	50.727657	72.173073	-951.88495	101.8456	50.083447	-994.66431	61.192398	39.287022	-809.55713
86	0.425	230.45036	1319.3765	-1004.3118	235.78885	1262.7192	-844.28864	74.903381	1241.097	-999.59637	348.86053	883.90784	-808.82361	96.555046	894.88263	-802.78369	262.61069	952.5481	-986.52478	189.07031	952.49402	-983.52844	393.57355	550.84851	-877.94586	379.25656	417.11584	-908.55518	395.5159	205.07106	-935.13739	377.03683	62.766075	-960.20734	324.27646	48.49456	-990.64642	377.20901	37.297916	-809.94586	37.0602	726.68988	-864.49878	50.476524	417.58133	-916.74988	30.132242	320.11108	-930.60376	50.695587	72.216698	-951.85852	101.82441	50.144161	-994.66675	61.177082	39.295685	-809.54309
87	0.43	230.45189	1319.3804	-1004.2595	235.80101	1262.7507	-844.25201	74.854317	1241.1102	-999.53931	348.86267	883.93384	-808.81158	96.552811	894.88977	-802.76672	262.61108	952.51544	-986.48059	189.07561	952.44562	-983.47144	393.61707	550.80322	-878.03015	379.2634	417.04254	-908.75482	395.88187	204.47937	-937.47382	376.98178	62.66132	-960.11749	324.31573	48.389133	-990.60773	377.2363	37.243649	-810.00574	37.021339	726.70282	-864.52563	50.482914	417.58771	-916.73999	30.11676	320.09399	-930.61426	50.752079	72.167015	-951.90881	101.86019	50.054287	-994.63776	61.185818	39.290211	-809.552
88	0.435	230.45226	1319.3776	-1004.2177	235.79425	1262.769	-844.20795	74.831207	1241.1317	-999.47375	348.86978	883.98364	-808.79401	96.5438	894.91364	-802.7334	262.62125	952.48163	-986.42841	189.08189	952.39972	-983.41589	393.62662	550.7934	-878.05695	379.27051	417.02151	-908.94232	395.93243	204.42235	-937.66382	376.9433	62.583908	-960.05444	324.32507	48.262264	-990.5119	377.25772	37.203583	-809.9986	36.998096	726.7027	-864.48663	50.4636	417.60583	-916.73102	30.097759	320.11447	-930.65894	51.261429	72.100861	-952.27087	101.88195	50.006561	-994.63391	61.197041	39.312405	-809.58685
89	0.44	230.43658	1319.403	-1004.1864	235.80786	1262.7634	-844.16943	74.845673	1241.1173	-999.37909	348.87384	883.96143	-808.7757	96.545616	894.89368	-802.71191	262.60422	952.52124	-986.41248	189.0522	952.46027	-983.39728	393.58484	550.8103	-877.97809	379.26764	417.04108	-908.88074	395.93405	204.4317	-937.63763	376.95865	62.631763	-960.0824	324.3367	48.311161	-990.5379	377.26505	37.238354	-809.98962	36.979118	726.71661	-864.43304	50.106968	417.97772	-916.87421	30.109097	320.1181	-930.60669	50.915718	72.150749	-952.02472	101.89823	50.035954	-994.63116	61.205826	39.310379	-809.56763
90	0.445	230.43956	1319.4064	-1004.1465	235.82216	1262.7095	-844.1217	74.867722	1241.1251	-999.3006	348.86566	883.91962	-808.75043	96.548584	894.82306	-802.69196	262.57333	952.57666	-986.38916	189.04886	952.50873	-983.38019	393.54263	550.83417	-877.85602	379.21439	417.10608	-908.59039	395.51892	205.07629	-935.15155	377.03485	62.789829	-960.20221	324.29715	48.508556	-990.63171	377.21872	37.257442	-809.92163	37.015171	726.68689	-864.32886	50.465843	417.59268	-916.66974	30.106071	320.13345	-930.54535	50.859077	72.23597	-951.96429	101.8695	50.160027	-994.64673	61.200607	39.315948	-809.51813
91	0.45	230.43196	1319.3854	-1004.1143	235.81482	1262.671	-844.06311	74.839874	1241.1819	-999.33752	348.87115	883.90186	-808.71216	96.522781	894.78662	-802.64062	262.58932	952.59857	-986.36755	189.03914	952.51385	-983.35352	393.53183	550.80994	-877.81433	379.17023	417.15756	-908.41675	395.4718	205.11754	-934.9115	377.11594	62.894196	-960.31818	324.29575	48.556225	-990.63239	377.20422	37.307083	-809.92151	37.019653	726.66833	-864.24579	50.448418	417.5882	-916.63495	30.434874	319.82532	-930.44714	50.885723	72.269531	-951.97491	101.85226	50.207634	-994.66327	61.201546	39.309036	-809.49054
92	0.455	230.42532	1319.4061	-1004.064	235.80215	1262.6923	-843.99988	74.814453	1241.1677	-999.27936	348.86023	883.89758	-808.6795	96.522285	894.82129	-802.59937	262.57477	952.59357	-986.34326	189.0345	952.50293	-983.32721	393.57837	550.82257	-877.82947	379.16336	417.12729	-908.45557	395.48584	205.08781	-935.03754	377.10989	62.883236	-960.30792	324.29202	48.519669	-990.63586	377.22137	37.280708	-809.91217	37.016731	726.63086	-864.18433	50.440426	417.5824	-916.61932	30.149977	320.10501	-930.5072	50.902843	72.249763	-952.02173	101.87467	50.202591	-994.66931	61.225132	39.299091	-809.51221
93	0.46	230.41818	1319.3966	-1004.0253	235.78775	1262.7158	-843.9231	74.778526	1241.171	-999.23004	348.83676	883.93365	-808.62378	96.525223	894.84302	-802.57574	262.56747	952.55872	-986.29578	189.03822	952.46466	-983.28998	393.53772	550.8147	-877.78613	379.1853	417.08081	-908.68115	395.50214	205.02596	-935.24854	377.08548	62.824646	-960.26178	324.31479	48.464539	-990.63031	377.20474	37.230469	-809.89124	37.002281	726.63501	-864.17126	50.419975	417.59534	-916.617	30.143068	320.11523	-930.55402	50.928154	72.211632	-952.06555	101.88918	50.113079	-994.6579	61.21957	39.303017	-809.53937
94	0.465	230.39421	1319.4114	-1003.994	235.79976	1262.7632	-843.86377	74.762428	1241.1534	-999.17261	348.85663	883.97076	-808.61475	96.528076	894.90723	-802.52911	262.53476	952.53564	-986.27197	189.01755	952.42529	-983.25336	393.62048	550.83087	-877.91107	379.18161	417.02655	-908.771	395.85245	204.4948	-937.52826	376.99521	62.729923	-960.18372	324.31262	48.3922	-990.59534	377.23578	37.226475	-809.99078	36.963268	726.66321	-864.16876	50.399433	417.60699	-916.60486	30.129686	320.12439	-930.57782	50.881802	72.193886	-952.04156	101.88779	50.091007	-994.65546	61.212505	39.308086	-809.55634
95	0.47	230.37401	1319.4073	-1003.9526	235.8492	1262.8865	-843.35956	74.742424	1241.1692	-999.09882	348.84406	883.95306	-808.56787	96.525269	894.89349	-802.49048	262.52426	952.53357	-986.24506	188.99332	952.43152	-983.21088	393.56711	550.83276	-877.8197	379.1821	417.06775	-908.79382	395.83267	204.49928	-937.4953	376.9306	62.714943	-960.12244	324.25952	48.453358	-990.63116	377.23865	37.225437	-810.02625	36.948181	726.66168	-864.11157	50.379555	417.61383	-916.57574	30.104532	320.11398	-930.53564	50.851223	72.160202	-951.92548	101.86918	50.104244	-994.65051	61.186634	39.296478	-809.52734
96	0.475	230.36803	1319.4183	-1003.9236	235.85025	1262.8826	-843.33264	74.723534	1241.1927	-999.05212	348.8515	883.91766	-808.54358	96.538666	894.8653	-802.48645	262.50983	952.56067	-986.2066	188.98746	952.45691	-983.18927	393.58737	550.81067	-877.81396	379.14542	417.0733	-908.55573	395.46268	205.0528	-935.19043	376.95886	62.792412	-960.18475	324.2424	48.515633	-990.6366	377.25113	37.297428	-810.03607	36.975037	726.65222	-864.04968	50.342594	417.6019	-916.51843	30.104889	320.12631	-930.4707	50.797676	72.195145	-951.85242	101.85369	50.157635	-994.65656	61.184471	39.305607	-809.52338
97	0.48	230.37828	1319.4183	-1003.8964	235.85608	1262.8538	-843.31879	74.760376	1241.1631	-998.99152	348.84772	883.90112	-808.52966	96.533157	894.85547	-802.46161	262.51846	952.58057	-986.17706	188.98761	952.43036	-983.15649	393.54938	550.80334	-877.7301	379.13733	417.10767	-908.53674	395.4537	205.09535	-935.06384	377.02866	62.85397	-960.26318	324.24734	48.542099	-990.64191	377.23764	37.301918	-810.00787	36.977936	726.64514	-864.00739	50.332848	417.60483	-916.51752	30.100636	320.1185	-930.45264	50.794319	72.19677	-951.83984	101.86523	50.166683	-994.66058	61.191727	39.277054	-809.49109
98	0.485	230.38284	1319.4009	-1003.8574	235.90251	1262.8271	-843.3371	74.757698	1241.1506	-998.92975	348.8327	883.93262	-808.49542	96.518402	894.88092	-802.42627	262.5293	952.53741	-986.14734	188.99908	952.42059	-983.11554	393.56619	550.81549	-877.72839	379.16367	417.07532	-908.63849	395.49393	205.05061	-935.25604	376.95187	62.719784	-960.16241	324.27197	48.431984	-990.59039	377.26657	37.268608	-810.03699	36.983459	726.62573	-864.01239	50.34964	417.58133	-916.50421	30.108944	320.11902	-930.50208	50.839916	72.18261	-951.94971	101.89902	50.077087	-994.65765	61.214222	39.285194	-809.54938
99	0.49	230.36929	1319.374	-1003.8174	235.90689	1262.8496	-843.29602	74.748268	1241.1187	-998.854	348.81674	883.94263	-808.46234	96.518333	894.89844	-802.40948	262.53964	952.46265	-986.11615	189.00648	952.36182	-983.078	393.57455	550.77759	-877.76129	379.1666	417.04333	-908.73187	395.50229	205.01823	-935.34528	376.93155	62.645794	-960.09192	324.39972	48.810921	-990.94653	377.2764	37.244743	-809.99884	36.964893	726.62329	-864.02625	50.323967	417.57599	-916.50897	30.101196	320.09406	-930.53149	51.201374	71.874748	-951.93146	101.91895	50.041637	-994.65961	61.220665	39.256493	-809.58942
100	0.495	230.28442	1319.4199	-1003.9304	235.89738	1262.8054	-843.25769	74.753868	1241.0963	-998.81415	348.8262	883.91974	-808.45941	96.51564	894.86786	-802.38837	262.53653	952.47644	-986.08423	188.99214	952.36969	-983.0553	393.56885	550.79565	-877.72632	379.14404	417.06927	-908.68848	395.49039	205.04343	-935.31207	376.92319	62.62981	-960.09985	324.40106	48.823322	-990.95453	377.26453	37.254211	-810.0047	36.973145	726.60431	-863.99994	50.331963	417.52493	-916.44604	30.087997	320.12088	-930.5285	50.889797	72.108391	-951.99811	101.90633	50.013432	-994.6377	61.226665	39.252712	-809.59064
